<?xml version="1.0" standalone="no"?>
<!DOCTYPE svg PUBLIC "-//W3C//DTD SVG 20010904//EN"
 "http://www.w3.org/TR/2001/REC-SVG-20010904/DTD/svg10.dtd">
<svg version="1.0" xmlns="http://www.w3.org/2000/svg"
 width="512.000000pt" height="512.000000pt" viewBox="0 0 512.000000 512.000000"
 preserveAspectRatio="xMidYMid meet">
<metadata>
Created by potrace 1.14, written by Peter Selinger 2001-2017
</metadata>
<g transform="translate(0.000000,512.000000) scale(0.100000,-0.100000)"
fill="#000000" stroke="none">
<path d="M2495 5101 c-22 -10 -47 -27 -56 -37 -9 -10 -117 -161 -239 -334
-123 -173 -226 -319 -231 -324 -4 -5 -177 48 -401 124 -431 145 -445 148 -512
97 -70 -54 -70 -53 -63 -514 4 -278 3 -414 -4 -418 -5 -4 -182 -60 -392 -126
-210 -65 -393 -127 -406 -137 -66 -49 -89 -136 -54 -202 10 -19 125 -178 256
-352 l236 -318 -236 -317 c-131 -175 -246 -334 -256 -353 -35 -66 -12 -153 54
-202 14 -10 196 -72 406 -137 210 -66 387 -122 392 -126 7 -4 8 -139 4 -418
-7 -461 -7 -460 63 -514 67 -51 81 -48 512 97 224 76 397 129 401 124 5 -5
108 -151 230 -324 123 -173 236 -327 251 -342 63 -59 156 -59 220 0 16 15 131
171 255 347 124 176 229 321 234 323 4 1 182 -57 397 -129 427 -144 441 -146
508 -96 70 54 70 53 63 514 -4 233 -3 414 2 418 5 3 181 59 392 124 210 66
394 128 408 138 66 50 89 137 54 203 -10 19 -123 175 -251 346 -128 172 -232
317 -232 324 0 7 104 152 232 324 128 171 241 327 251 346 35 66 12 153 -54
203 -14 10 -198 72 -408 138 -211 65 -387 121 -392 124 -5 4 -6 185 -2 418 7
461 7 460 -63 514 -67 50 -81 48 -512 -97 -222 -75 -397 -129 -401 -124 -5 5
-102 142 -216 304 -261 370 -261 369 -309 391 -52 23 -81 23 -131 0z m210
-911 c716 -68 1303 -587 1455 -1288 92 -426 5 -883 -239 -1247 -373 -559
-1052 -836 -1703 -695 -622 135 -1112 620 -1254 1240 -186 819 287 1653 1088
1914 224 73 427 97 653 76z"/>
<path d="M2455 3849 c-586 -45 -1067 -484 -1171 -1067 -20 -113 -20 -331 0
-444 96 -535 517 -958 1051 -1053 116 -21 333 -21 447 -1 582 104 1021 585
1067 1170 62 801 -593 1457 -1394 1395z m203 -393 c2 -121 -1 -161 -10 -168
-15 -9 -149 -11 -172 -2 -14 5 -16 29 -16 163 0 87 3 161 7 165 4 4 48 5 98 4
l90 -3 3 -159z m-711 -228 c57 -57 103 -109 103 -118 0 -16 -118 -140 -134
-140 -11 0 -204 189 -217 213 -8 14 2 30 52 82 34 36 69 65 78 65 9 0 62 -46
118 -102z m1422 38 c53 -53 61 -67 53 -82 -13 -24 -206 -214 -218 -214 -15 0
-134 124 -134 140 0 20 200 220 220 220 9 0 44 -29 79 -64z m-377 -373 c32
-32 58 -62 58 -68 0 -5 -66 -76 -146 -156 l-147 -147 -1 -61 c-3 -111 -83
-186 -198 -186 -46 0 -64 5 -100 30 -160 111 -83 354 112 355 45 0 47 1 190
145 80 80 151 145 160 145 8 0 40 -26 72 -57z m-1267 -428 l0 -100 -149 -3
c-101 -2 -153 1 -162 9 -18 15 -20 169 -2 187 9 9 54 12 163 10 l150 -3 0
-100z m1970 0 l0 -100 -149 -3 c-101 -2 -153 1 -162 9 -15 12 -21 179 -7 193
4 3 77 5 162 4 l156 -3 0 -100z"/>
</g>
</svg>
